<svg xmlns="http://www.w3.org/2000/svg" viewBox="0 0 620 130"><defs><style>.cls-1{stroke:#231f20;stroke-miterlimit:10;stroke-width:0.25px;}</style></defs><g id="Logo"><path class="cls-1" d="M142.81,65.42h-4.66V62.6h4.66ZM26.06,73.56H15.33v-40H33.17V30.47H15.33V15.22H31.84l2.44,3H26.06V20.4h10L57.75,47.57H45.16v2.6H59.82l17,21.17,27.68-34.57h15.92V34.69H106.09l15.55-19.47h16.51v7.11h-15v2.29h15v38h-15v2.82h15v55.07H120.6v-6.88H125V110.8H120.6V98.58h12.81v-5H120.6v-49l-23.91,30H82.92v3h11.4L76.78,99.47l-6.59-8.29H80.63V89.4H68.71L51.46,67.86h7.7V65.42H49.53L32.88,44.61V55H24.29v1.77h8.59V99.84H24.29V103h8.59v17.54H15.33V86.37h6.74V84.52H15.33V76.08H26.06Zm11.7,36.5V108.5H49.53v1.56Zm-19.91,5h6.44v-1.63H17.85ZM10,73.56h5.33v2.52H10Z"/><path class="cls-1" d="M350.2,54.12h-9V51.49h9ZM280.61,85.79h9v-2h-7.47l4.12-5.27a35.87,35.87,0,0,1-23.05-33.44,34.41,34.41,0,0,1,10.53-25.34A34.38,34.38,0,0,1,299.11,9.22h6.48v2.85h27.18V9.22h8.47V51.49h-7.19v2.63h7.19V91.2h-9.68v2.35h9.68v16.86H324.37v-9.89h8.4V98h-8.4V80.88h-18.5L291.43,99.24H274.49v3.2h14.45l-6.26,8H261.26Zm43.76-47.53h8.4V35.55h-8.4V26.09H299.11a18.33,18.33,0,0,0-13.45,5.55,18.49,18.49,0,0,0-4.84,8h-6.33v1.78h6a17.59,17.59,0,0,0-.36,3.63,18.09,18.09,0,0,0,2.28,9h-7.9v3h10a15.7,15.7,0,0,0,1.21,1.35A18.33,18.33,0,0,0,299.11,64h25.26ZM320.82,76V73.76H302.39V76ZM280.47,41.46c.09-.62.21-1.21.35-1.78h7.55v1.78ZM273,83.8h9.18l-1.57,2H273Z"/><path class="cls-1" d="M410.14,65.21l6.79-2.81V77L364.42,98.85V84.26L377,79v11.9h3.23V77.7L389.1,74v5.1h2.34L391.38,73l17.23-7.15v6.68h1.53ZM432.7,79.1V70.43l3.22-1.35v10ZM416.93,50.79l-17.75-7.44V28.76L440.73,46.1v8.68h2.46V47.1L447.76,49V64.16l-11.84,4.92V63.69H432.7v6.74l-12.95,5.39V61.23l11.13-4.63L419.75,52V46.1h-2.82ZM410.14,62.4v2.81l-1.53.65V62.4Zm33.05-33.29v18l-2.46-1v-17ZM364.42,14.28l32.35,13.48V42.35l-19.22-8V26.24h-1.47v7.5l-11.66-4.87Z"/><path class="cls-1" d="M200.76,73.61h1.62V66.49l18.38,7.62-.06,6.5h2.5V75.17l9.5,3.94V93.24h3.44V80.55l13.37,5.56v15.57l-56-23.32V62.8l7.25,3ZM190.51,89.24V77.11l3,1.25V89.24Zm3-43.82h-3v6.25l-11.88,4.94,11.88,4.94V77.11L176.7,71.36V64.17h-3.44v5.75l-12.63-5.25V48.55l4.88-2.06v8.18h2.62V45.42l44.32-18.5V42.49l-18.94,7.93ZM226,56.61h1.75V45.92H226Zm23.56-29.56-12.44,5.19v-8h-1.56v8.63L215,41.42V25.86l34.5-14.38Zm-37.06-10.5H215v9.31l-2.56,1.06Z"/><path class="cls-1" d="M480.17,26l3.69,1.09L483,30l-3.69-1.09Zm-19.6,71.86,2.2.65-.71,2.42-2.21-.65ZM471,91.34l11.22,3.31-6,20.38-12.85-3.8-.38,1.28,12.85,3.79-1.32,4.48-16.83-5,4.41-14.91,10.22,3,.71-2.42-10.22-3,13.59-46,13.77,4.06,1.22-4.11-13.78-4.07L483,30l10.23,3,.86-2.91-10.23-3,3.61-12.21L492,16.19,491.49,18l12.28,3.63-5.83,19.74-11.5-3.4-.55,1.85,10.37,3.06-6.88,23.29-10.08-3-.59,2,11.22,3.31-7.36,24.92-11.22-3.31Zm2.58-16.84-.65,2.2,7.1,2.1.65-2.2Zm17.65-5.67-1.28-.38.59-2,1.28.38Z"/><path class="cls-1" d="M610,28.7h-3.78v-3H610Zm-3.78-13.48V25.66H582.16l7.63-10.44ZM536,89.11l22.28-30.58h18.66V55H560.84l19.1-26.28h26.28V58.53H592.45V62.6h13.77V93H588.68V46.61l-53.82,73.88H518.42V110.06H535.6v-3H518.42V66.67H536Zm52.71,31.38v-7.1H598V108.5h-9.33V95.32h17.54v25.17Zm-40.5-94.83h18.06l-2.22,3H548.18Zm6,83.14h6.66l-2.59,3.55h-4.07ZM536,15.22V30.47H525.9v3.11H536V64.16H518.42V15.22ZM514.43,107h4v3h-4Z"/></g></svg>