<svg xmlns="http://www.w3.org/2000/svg" viewBox="0 0 1713.28 560"><defs><style>.cls-1{fill:#062671;}.cls-2,.cls-5,.cls-9{fill:#fff;}.cls-3{fill:#ff77bc;}.cls-4{fill:#30e7c8;}.cls-5{font-size:111px;font-family:Helvetica-Bold, Helvetica;font-weight:700;}.cls-6{letter-spacing:-0.04em;}.cls-7{letter-spacing:-0.02em;}.cls-8{letter-spacing:0em;}.cls-9{font-size:117px;font-family:BebasNeueBold, Bebas Neue;}</style></defs><g id="Layer_2" data-name="Layer 2"><g id="Layer_1-2" data-name="Layer 1"><circle class="cls-1" cx="280" cy="280" r="280"/><path class="cls-2" d="M70.84,360.35,73,366l-25.1,12.8-1.51-4,19.83-10-21.41,5.81-1.5-4,20-9.91L41.7,362.45l-1.36-3.59,27.3-7,2.07,5.46-13.4,6.77Z"/><path class="cls-2" d="M34.89,340.16c-1-4.19.9-7.09,5.25-8.16l14.14-3.47c4.35-1.06,7.4.62,8.43,4.81s-.9,7.1-5.25,8.17L43.32,345C39,346,35.92,344.36,34.89,340.16Zm23.93-5.86c-.33-1.36-1.28-2-3.22-1.56l-14.68,3.6c-2,.48-2.47,1.51-2.14,2.87s1.28,2,3.22,1.56l14.69-3.6C58.63,336.69,59.16,335.66,58.82,334.3Z"/><path class="cls-2" d="M29.5,308,28.75,302l27.79-3.44.51,4.13-19.93,2.47,20.3.55.51,4.13-19.25,5.68,19.66-2.43.47,3.81L31,320.3l-.75-6.07,19.33-5.66Z"/><path class="cls-2" d="M39.75,277.76l4,0,.06,6,8.2-.08-.08-7.6,4,0,.12,12-28,.27-.12-12,4,0,.08,7.6,7.8-.07Z"/><path class="cls-2" d="M56.65,262.7l-.37,3.94L28.4,264.09l.51-5.5,17.1-3-16.69-1.53.36-3.9,27.88,2.55-.41,4.5-20.7,3.61Z"/><path class="cls-2" d="M63.39,222.83l-5.12-.48L57,227.59l4.75,2-1,3.92-26.1-11.08,1.55-6.25,28.26,2.39Zm-9-.81-14.25-1.35,13.23,5.46Z"/><path class="cls-2" d="M68.44,206.26,67.09,210l-26.32-9.56,1.88-5.18L60,196.71,44.19,191l1.34-3.69,26.32,9.55-1.54,4.25-20.94-1.76Z"/><path class="cls-2" d="M53.69,169c1.93-3.95,5.07-4.82,9.1-2.86l12.72,6.2c4,2,5.28,5,3.35,8.93l-3,6.26L50.64,175.3Zm20.45,12.82,1.09-2.23c.61-1.26.33-2.33-1.46-3.2l-13.09-6.38c-1.8-.88-2.81-.44-3.43.82l-1.08,2.23Z"/><path class="cls-2" d="M68.14,143.2l2.62-3.78,12.41,4.48-8.59-10L77,130.43l12.25,15.21,7.64,5.27-2.5,3.62-7.64-5.27Z"/><path class="cls-2" d="M87.27,117.06c2.79-3.3,6.27-3.44,9.69-.55l11.11,9.41c3.42,2.89,3.85,6.35,1.06,9.65s-6.27,3.44-9.69.54l-11.11-9.4C84.91,123.81,84.48,120.36,87.27,117.06ZM106.08,133c.9-1.07.89-2.23-.63-3.52l-11.54-9.77c-1.53-1.29-2.68-1.11-3.58,0s-.9,2.23.63,3.52l11.54,9.77C104,134.23,105.18,134.05,106.08,133Z"/><path class="cls-2" d="M118.38,115.74c1.39,1.44,2.52,1.35,3.53.38s1.14-2.1-.24-3.54L106.68,97l3-2.89,14.79,15.36c3.11,3.22,3.27,6.62.16,9.62s-6.5,2.71-9.61-.52l-14.79-15.36,3.17-3Z"/><path class="cls-2" d="M128.54,78.48,131,81.61l-3.6,2.86,14.92,18.8L138.9,106,124,87.21l-3.6,2.86-2.49-3.14Z"/><path class="cls-2" d="M152.88,95.43,137.7,71.91l3.69-2.39L147.9,79.6l4.2-2.71-6.5-10.08,3.76-2.43,15.19,23.53-3.77,2.42-6.51-10.08L150.07,83l6.51,10.09Z"/><path class="cls-2" d="M191.6,66.72c1.84,4.09.84,7.34-3.1,9.11s-7,.36-8.87-3.72l-6-13.28c-1.84-4.09-.85-7.34,3.09-9.11s7-.36,8.87,3.72l1.12,2.48-3.8,1.71-1.23-2.73c-.82-1.83-1.93-2.16-3.21-1.59s-1.77,1.63-.95,3.46l6.21,13.79c.82,1.82,1.92,2.12,3.19,1.54s1.79-1.59,1-3.42L186.28,65l3.79-1.71Z"/><path class="cls-2" d="M212.47,66.33l-2.32-4.58L205,63.45l.88,5.06-3.83,1.28-4.58-28,6.11-2,13.09,25.16Zm-4.09-8L201.9,45.56l2.46,14.11Z"/><path class="cls-2" d="M233.14,57.37l-.95-4.3c-.56-2.54-1.62-3.29-3.58-2.85l-1.48.32,2.46,11.13-4.3.95-6-27.34,6.48-1.43c4.45-1,6.82.66,7.75,4.88l.48,2.15c.62,2.81.13,4.85-1.59,6.17,2.35.42,3.51,2.34,4.14,5.19l.93,4.22a8.21,8.21,0,0,0,1.2,3.21l-4.38,1A8.61,8.61,0,0,1,233.14,57.37Zm-6.87-10.73,1.68-.37c1.6-.36,2.42-1.28,1.94-3.46l-.6-2.7c-.43-2-1.28-2.66-2.81-2.33l-2.06.46Z"/><path class="cls-2" d="M256,40.91l.48,4-6,.72,1,8.14,7.55-.9.47,4-11.92,1.42-3.31-27.8L256.2,29l.47,4-7.55.9.93,7.75Z"/><path class="cls-2" d="M290.12,40l-.1,4-6-.14L283.79,52l7.6.18-.09,4-12-.28.65-28,12,.27-.09,4-7.6-.17-.18,7.8Z"/><path class="cls-2" d="M317.29,30.75l6.07.84-3.81,27.74-4.12-.57,2.73-19.89-5.75,19.48-4.12-.57-.55-20.06L305,57.34l-3.8-.52,3.81-27.75,6.06.84L311.62,50Z"/><path class="cls-2" d="M347.68,44.33l-.91,3.53c-1.11,4.34-3.8,6.17-8.07,5.08l-2-.52-2.61,10.19-4.26-1.09,6.94-27.12L343,36C347.3,37.1,348.79,40,347.68,44.33Zm-10,4.22,2,.51c1.35.35,2.25-.08,2.74-2l1-4.07c.5-1.93-.08-2.74-1.44-3.09l-2-.52Z"/><path class="cls-2" d="M366.59,43c4.06,1.48,5.4,4.7,3.87,8.9l-5,13.69c-1.53,4.21-4.63,5.8-8.69,4.33s-5.4-4.7-3.86-8.91l5-13.68C359.44,43.09,362.53,41.49,366.59,43Zm-8.44,23.16c1.32.48,2.41.06,3.09-1.82l5.18-14.21c.68-1.87.12-2.89-1.2-3.37s-2.4-.07-3.09,1.81L357,62.75C356.27,64.63,356.84,65.65,358.15,66.13Z"/><path class="cls-2" d="M380.05,79.52l-5.39-2.73,9.86-26.39,3.82,1.94L380.47,73.1l11.86-18.74,3.79,1.91L388,77.11,400.11,58.3,403.54,60,388.11,83.6,382.9,81l5.31-14Z"/><path class="cls-2" d="M416.75,82.39l-2.21,3.33-5-3.34L405,89.22l6.33,4.2-2.21,3.33-10-6.63,15.48-23.34,10,6.64-2.21,3.33L416,72.55l-4.32,6.5Z"/><path class="cls-2" d="M425.65,105.22l2.78-3.4c1.65-2,1.57-3.32,0-4.58l-1.17-1-7.22,8.82-3.4-2.78,17.71-21.68,5.15,4.2c3.53,2.89,3.7,5.77,1,9.11l-1.39,1.71c-1.83,2.23-3.73,3.1-5.83,2.57,1.12,2.11.34,4.2-1.51,6.46L429,108a8.23,8.23,0,0,0-1.78,2.94l-3.47-2.84A8.73,8.73,0,0,1,425.65,105.22Zm4.16-12,1.33,1.09c1.27,1,2.5,1.11,3.92-.62l1.74-2.14c1.27-1.55,1.3-2.66.09-3.65l-1.64-1.34Z"/><path class="cls-2" d="M463.3,107l4.25,4.4-20.14,19.45-2.89-3,14.44-14L442.4,125.67l-2.88-3,12-16.12-14.24,13.76-2.67-2.77,20.15-19.44,4.25,4.4-12.06,16.14Z"/><path class="cls-2" d="M473.13,137.11,470,139.55l-3.68-4.79-6.5,5,4.63,6-3.17,2.44-7.32-9.52,22.19-17.07,7.32,9.51-3.17,2.43-4.63-6-6.18,4.76Z"/><path class="cls-2" d="M468.83,159.45l-2.09-3.37,23.78-14.78,2.92,4.69-11.85,12.69,14.23-8.85,2.07,3.33-23.78,14.78-2.39-3.84,14.34-15.36Z"/><path class="cls-2" d="M509.4,175.33l-3.6,1.76-2-4.13-21.55,10.58-1.94-3.95L501.84,169l-2-4.13,3.59-1.76Z"/><path class="cls-2" d="M518.87,199.5l-26.45,9.19L491,204.53l26.45-9.18Z"/><path class="cls-2" d="M496.23,221.17l-1-3.83,27.11-7,1.38,5.34-15.11,8.56,16.23-4.18,1,3.8-27.11,7-1.13-4.37,18.27-10.36Z"/><path class="cls-2" d="M528.77,239.4l-27.6,4.73-.74-4.34,27.6-4.73Z"/><path class="cls-2" d="M531.5,262.4l-4,.38-.44-4.58-23.88,2.3-.43-4.38,23.89-2.3-.44-4.57,4-.39Z"/><path class="cls-2" d="M532,276.32,504,277l-.1-4.4,28-.63Z"/><path class="cls-2" d="M531.35,299.42l-4-.2.23-4.59-24-1.22.22-4.39,24,1.21.23-4.59,4,.2Z"/><path class="cls-2" d="M501.09,316.13h5.14l.79-5.34-4.91-1.5.59-4,27,8.55-.94,6.37-28.36.32Zm9,0H524.4l-13.7-4.18Z"/><path class="cls-2" d="M522.85,347.68l-3.88-1,1.11-4.46-23.29-5.81,1.07-4.27L521.15,338l1.11-4.47,3.88,1Z"/><path class="cls-2" d="M518.68,361l-26.61-8.74,1.38-4.18,26.6,8.73Z"/><path class="cls-2" d="M511.07,380.72l-1.56,3.73-24.17-14.79,2.53-6.05,27.51,6.81-1.72,4.1-22.37-5.71Z"/><path class="cls-2" d="M489.16,398.32l-3.52-1.9,2.86-5.31-7.21-3.89-3.61,6.69-3.52-1.9,5.69-10.56,24.65,13.29-5.7,10.56-3.52-1.9,3.61-6.69L492,393Z"/><path class="cls-2" d="M123.66,447.46a8.93,8.93,0,1,1-12.58.43A8.9,8.9,0,0,1,123.66,447.46Z"/><path class="cls-2" d="M185.78,518.37l-8.44-3.9,5.86-24.39-.09,0-14.76,20.28-8.58-4L166,469.9l8.44,3.9-6.36,25.81.09,0,15.71-21.49,7.95,3.67-6.18,25.9.09,0,15.53-21.58,8.44,3.9Z"/><path class="cls-2" d="M235.29,495.66l9.29,1.71,6.67,37.53-9.54-1.76-1-6.69-12.25-2.25-3.37,5.88-9.39-1.72Zm-3.46,22.14,8,1.46-1.62-13-.1,0Z"/><path class="cls-2" d="M285.85,522.52l.07,13.3-9.3,0-.07-13.3-13.11-22.34,10.55-.05,7.17,14.46,7-14.53,10.55-.05Z"/><path class="cls-2" d="M339.84,505.29c-1.29-3.4-4.44-4.63-8.24-3.76-5.85,1.34-6.91,7-5.73,12.18s4.6,9.82,10.45,8.48c4.24-1,6.12-4,5.55-8l9.06-2.08c1.57,9.08-3.81,15.85-12.63,17.87-10.53,2.4-19.19-4.08-21.5-14.17s2.68-19.69,13.21-22.09c7.51-1.72,16.74,1.2,18.9,9.52Z"/><path class="cls-2" d="M363.32,484.32l25.6-12.4,3.25,6.71L374.94,487l2.72,5.63L393.41,485l3.14,6.48-15.75,7.63,3,6.12,17.68-8.57,3.49,7.2-26.05,12.62Z"/><path class="cls-2" d="M431.87,451.53a8.93,8.93,0,1,1-.77,12.57A8.91,8.91,0,0,1,431.87,451.53Z"/><path class="cls-3" d="M455,275.07H284.93V105.82a46,46,0,0,1,43.56,46v79.73H409A46,46,0,0,1,455,275.07Z"/><path class="cls-4" d="M455,284.93H284.93V454.18a46,46,0,0,0,43.56-46V328.49H409A46,46,0,0,0,455,284.93Z"/><path class="cls-4" d="M105,275.07H275.07V105.82a46,46,0,0,0-43.56,46v79.73H151A46,46,0,0,0,105,275.07Z"/><path class="cls-3" d="M105,284.93H275.07V454.18a46,46,0,0,1-43.56-46V328.49H151A46,46,0,0,1,105,284.93Z"/><text class="cls-5" transform="translate(585.79 274.4)">WOMEN<tspan class="cls-6" x="437.77" y="0"> </tspan><tspan x="464.54" y="0">AND</tspan><tspan class="cls-7" x="705.02" y="0"> </tspan><tspan class="cls-8" x="733.91" y="0">YOUTH</tspan></text><text class="cls-9" transform="translate(581.84 371.71)">CARE EMPOWERMENT INITIATIVE</text></g></g></svg>